<?xml version="1.0" encoding="utf-8"?>
<!-- Generator: Adobe Illustrator 25.2.3, SVG Export Plug-In . SVG Version: 6.00 Build 0)  -->
<svg version="1.1" id="Layer_1" xmlns="http://www.w3.org/2000/svg" xmlns:xlink="http://www.w3.org/1999/xlink" x="0px" y="0px"
	 viewBox="0 0 200 200" style="enable-background:new 0 0 200 200;" xml:space="preserve">
<style type="text/css">
	.st0{fill:#2D3848;}
	.st1{fill:#F3941F;}
	.st2{opacity:0.1;}
	.st3{clip-path:url(#SVGID_2_);}
	.st4{clip-path:url(#SVGID_4_);fill:#2D3848;}
	.st5{clip-path:url(#SVGID_4_);}
	.st6{fill:#FFFFFF;}
	.st7{fill:none;}
</style>
<g>
	<g>
		<g>
			<path class="st6" d="M177.28,104.43c-6.3-6.35-14.65-9.96-23.51-10.17c-9.33-0.22-18.14,3.25-24.81,9.76
				c-6.67,6.51-10.34,15.24-10.34,24.56c0,4.46,0.85,8.81,2.53,12.93c0.55,1.35,2.09,2,3.43,1.45c1.35-0.55,2-2.09,1.45-3.43
				c-1.42-3.48-2.14-7.16-2.14-10.94c0-7.89,3.11-15.27,8.76-20.79c5.64-5.51,13.11-8.45,21-8.26c7.49,0.18,14.56,3.24,19.89,8.61
				c5.34,5.38,8.34,12.47,8.46,19.96c0.1,6.47-1.88,12.62-5.74,17.81l-14.33,19.76c-2.58,3.56-4.36,7.54-5.29,11.84l-1.07,4.96
				c-0.27,1.23-1.37,2.12-2.63,2.12c-1.26,0-2.36-0.89-2.63-2.12l-1.07-4.96c-0.93-4.3-2.71-8.28-5.29-11.84l-12.38-17.07
				c-0.85-1.18-2.5-1.44-3.68-0.59c-1.18,0.85-1.44,2.5-0.59,3.68l12.38,17.07c2.15,2.96,3.63,6.28,4.41,9.86l1.07,4.96
				c0.79,3.64,4.06,6.28,7.78,6.28s6.99-2.64,7.78-6.28l1.07-4.96c0.77-3.58,2.26-6.9,4.41-9.86l14.31-19.73
				c4.54-6.11,6.88-13.38,6.76-21.01C187.13,119.15,183.58,110.78,177.28,104.43L177.28,104.43z"/>
			<path class="st6" d="M29.7,70.79c1.68,2.31,2.84,4.9,3.44,7.7L34,82.46c0.68,3.15,3.52,5.44,6.74,5.44
				c3.22,0,6.06-2.29,6.74-5.44l0.86-3.97c0.6-2.79,1.76-5.38,3.44-7.7L63.23,55c3.71-4.99,5.61-10.92,5.52-17.15
				c-0.11-7.23-3.01-14.07-8.15-19.25c-5.14-5.18-11.95-8.13-19.19-8.3c-7.62-0.18-14.8,2.65-20.24,7.96
				c-5.44,5.32-8.44,12.43-8.44,20.04c0,6.06,1.91,11.84,5.5,16.67L29.7,70.79z M24.85,22.04c4.29-4.19,9.91-6.47,15.88-6.47
				c0.18,0,0.37,0,0.55,0.01c5.86,0.14,11.39,2.53,15.57,6.74s6.53,9.76,6.62,15.62c0.08,5.06-1.47,9.87-4.49,13.94L47.51,67.7
				c-2.11,2.91-3.56,6.17-4.32,9.68l-0.86,3.97c-0.16,0.74-0.83,1.28-1.59,1.28c-0.76,0-1.43-0.54-1.59-1.28l-0.86-3.97
				c-0.76-3.51-2.21-6.77-4.32-9.68L22.48,51.86C19.55,47.91,18,43.23,18,38.31C18,32.13,20.43,26.35,24.85,22.04L24.85,22.04z"/>
			<path class="st6" d="M136.24,24.32c1.18,0.85,2.83,0.58,3.68-0.6c3.85-5.35,10.07-8.46,16.65-8.3c5.13,0.12,9.97,2.22,13.62,5.9
				c3.65,3.68,5.71,8.54,5.79,13.67c0.07,4.43-1.28,8.64-3.93,12.21l-2.72,3.76c-0.85,1.18-0.59,2.83,0.59,3.68
				c0.47,0.34,1.01,0.5,1.54,0.5c0.82,0,1.62-0.38,2.13-1.09l2.71-3.73c3.33-4.48,5.04-9.81,4.96-15.41
				c-0.1-6.5-2.7-12.64-7.32-17.3c-4.62-4.66-10.74-7.3-17.24-7.46c-8.32-0.19-16.19,3.73-21.06,10.5c-0.23,0.32-0.92,1.97,0.18,3.3
				C135.94,24.08,136.08,24.21,136.24,24.32L136.24,24.32z"/>
			<path class="st6" d="M131.93,167.91c0-0.73-0.29-1.46-0.88-1.98c-1.09-0.97-2.75-0.87-3.72,0.21c-1.67,1.88-3.42,3.6-5.19,5.12
				c-3.72,1.29-7.52,2.27-11.39,2.94c2.94-6.32,5.46-15.02,7.38-25.54c0.26-1.43-0.69-2.8-2.12-3.07c-1.43-0.26-2.8,0.69-3.07,2.12
				c-2.17,11.86-5.19,21.48-8.55,27.32c-2.2,0.19-4.42,0.29-6.65,0.29c-2.24,0-4.46-0.1-6.66-0.3c-3.88-6.72-7.09-17.95-9.27-31.69
				c5.21,0.42,10.54,0.64,15.93,0.64c4.99,0,10.02-0.19,14.97-0.56c1.45-0.11,2.54-1.37,2.43-2.83c-0.11-1.45-1.38-2.54-2.83-2.43
				c-4.81,0.36-9.71,0.55-14.57,0.55c-5.66,0-11.25-0.25-16.71-0.72c-1.42-10.64-2.26-22.53-2.36-34.83h42.72
				c1.45,0,2.63-1.18,2.63-2.63c0-1.22-0.83-2.24-1.95-2.54c-0.1-12.17-0.87-23.83-2.22-34.37c8.79,1.03,17.15,2.67,24.79,4.84
				c1.62,5.84,2.81,11.97,3.5,18.23c0.15,1.35,1.29,2.34,2.62,2.34c0.1,0,0.19-0.01,0.29-0.02c1.45-0.16,2.49-1.46,2.33-2.91
				c-0.6-5.38-1.54-10.68-2.8-15.8c7.16,2.43,13.53,5.37,18.84,8.76c1.32,4.43,2.24,8.99,2.73,13.65c0.14,1.35,1.28,2.36,2.62,2.36
				c0.09,0,0.18,0,0.28-0.01c1.45-0.15,2.5-1.45,2.35-2.89c-2.03-19.58-11.22-37.68-25.86-50.96
				c-14.75-13.38-33.85-20.74-53.77-20.74c-8.13,0-16.15,1.22-23.84,3.61c-1.39,0.43-2.16,1.91-1.73,3.3
				c0.43,1.39,1.91,2.16,3.3,1.73c3.04-0.95,6.14-1.69,9.27-2.24c-3.49,7.53-6.37,18.37-8.36,31.37c-3,0.33-5.97,0.72-8.89,1.19
				c-1.44,0.23-2.41,1.58-2.18,3.02c0.23,1.44,1.58,2.41,3.02,2.18c2.41-0.39,4.84-0.72,7.3-1.01c-0.42,3.29-0.79,6.69-1.1,10.2
				c-0.13,1.45,0.94,2.73,2.39,2.85c0.08,0.01,0.16,0.01,0.23,0.01c1.35,0,2.5-1.03,2.62-2.4c0.34-3.86,0.76-7.6,1.24-11.2
				c5.48-0.48,11.07-0.73,16.73-0.73c5.66,0,11.25,0.25,16.71,0.72c1.42,10.64,2.26,22.53,2.36,34.83H78.68
				c0.03-4.2,0.15-8.39,0.35-12.5c0.07-1.45-1.05-2.69-2.5-2.76c-1.46-0.07-2.69,1.05-2.76,2.5c-0.2,4.19-0.32,8.47-0.35,12.75
				h-26.8c0.02-0.76,0.04-1.55,0.07-2.37c0.06-1.45-1.08-2.68-2.53-2.74c-1.45-0.06-2.68,1.08-2.74,2.53
				c-0.03,0.89-0.06,1.74-0.08,2.57H22.99c0.24-6.97,1.44-13.84,3.59-20.45c0.45-1.38-0.31-2.87-1.69-3.32
				c-1.38-0.45-2.87,0.31-3.32,1.69c-2.58,7.97-3.89,16.28-3.89,24.71c0,21.39,8.33,41.5,23.45,56.62
				c15.12,15.12,35.23,23.45,56.62,23.45c12.08,0,23.7-2.63,34.52-7.81c1.31-0.63,1.87-2.2,1.24-3.51
				C133.18,168.6,132.6,168.12,131.93,167.91L131.93,167.91z M119.1,58.23c-1.97-12.89-4.83-23.77-8.35-31.37
				c3.89,0.68,7.7,1.67,11.41,2.95c6.57,5.66,12.39,13.66,16.83,23.18c1.42,3.03,2.69,6.22,3.82,9.53
				C135.41,60.6,127.43,59.15,119.1,58.23L119.1,58.23z M166.66,71.41c-5.27-2.75-11.24-5.15-17.76-7.16
				c-1.44-4.72-3.16-9.25-5.14-13.48c-2.65-5.67-5.76-10.84-9.24-15.37c4.79,2.71,9.3,5.95,13.45,9.71
				C156.13,52.5,162.47,61.48,166.66,71.41L166.66,71.41z M97.74,57.07c-5.38,0-10.7,0.22-15.94,0.64
				c2.21-13.84,5.47-25.08,9.29-31.69c2.21-0.19,4.42-0.29,6.65-0.29c2.23,0,4.45,0.1,6.66,0.3c3.88,6.72,7.09,17.95,9.27,31.69
				C108.46,57.29,103.13,57.07,97.74,57.07z M84.74,174.19c-3.92-0.69-7.74-1.69-11.42-2.97c-8.93-7.69-16.02-19.14-20.65-32.7
				c7.41,1.92,15.39,3.37,23.72,4.29C78.35,155.71,81.21,166.6,84.74,174.19z M75.63,137.44c-8.8-1.03-17.16-2.67-24.8-4.85
				c-2.54-9.17-4-19.13-4.22-29.43h26.79C73.51,115.29,74.28,126.93,75.63,137.44L75.63,137.44z M22.99,103.16h18.35
				c0.19,9.57,1.43,18.87,3.58,27.59c-7.16-2.43-13.52-5.37-18.83-8.75C24.29,116,23.22,109.69,22.99,103.16L22.99,103.16z
				 M28.85,129.66c5.26,2.74,11.24,5.14,17.75,7.15c3.36,10.98,8.22,20.82,14.3,28.8C46.65,157.5,35.3,144.86,28.85,129.66z"/>
		</g>
		<g>
			<path class="st6" d="M32.53,29.44c1.48,0,2.72-1.16,2.72-2.68c0-1.52-1.24-2.68-2.72-2.68c-1.48,0-2.72,1.16-2.72,2.68
				C29.82,28.28,31.06,29.44,32.53,29.44z"/>
			<path class="st6" d="M26.9,43.77c-0.16,0.68-0.24,1.41-0.24,2.01c0,2.36,1.28,3.92,4,3.92c1.53,0,2.87-0.62,3.98-1.7
				c0.37-0.35,0.97-0.01,0.84,0.48l-0.08,0.31c-0.08,0.32,0.16,0.63,0.49,0.63h3.43c0.23,0,0.43-0.16,0.49-0.38l2.46-9.87
				c0.64-2.6,1.88-3.95,3.76-3.95c1.48,0,2.4,0.92,2.4,2.44c0,0.44-0.04,0.92-0.2,1.44l-1.32,4.71c-0.2,0.68-0.28,1.36-0.28,2
				c0,2.24,1.32,3.88,4.08,3.88c2.26,0,5.49-3.57,6.67-7.07c0.09-0.26-0.05-0.54-0.3-0.63h0c-0.25-0.09-0.53,0.01-0.64,0.25
				c-1.06,2.29-3.89,4.5-4.45,4.5c-0.6,0-0.92-0.4-0.92-1.2c0-0.36,0.08-0.76,0.2-1.24l1.28-4.59c0.32-1.08,0.44-2.04,0.44-2.91
				c0-3.44-2.08-5.23-4.6-5.23c-1.64,0-3.3,1.03-4.56,2.41c-0.35,0.38-0.98,0.06-0.87-0.45l0.22-1c0.07-0.32-0.17-0.61-0.49-0.61
				h-5.82c-0.23,0-0.43,0.15-0.49,0.37l-0.69,2.53c-0.09,0.32,0.15,0.64,0.49,0.64h1.89c0.33,0,0.57,0.31,0.49,0.63l-1.8,7.21
				c-0.01,0.03-0.02,0.06-0.03,0.09c-1.55,3.39-4.37,3.45-4.72,3.37c-0.59-0.13-0.96-0.35-0.96-1.11c0-0.44,0.08-1.07,0.28-1.83
				l2.84-11.26c0.08-0.32-0.16-0.63-0.49-0.63h-6.56c-0.23,0-0.43,0.15-0.49,0.37l-0.68,2.53c-0.09,0.32,0.15,0.64,0.49,0.64h1.85
				c0.33,0,0.57,0.31,0.49,0.63L26.9,43.77z"/>
		</g>
		<g>
			<path class="st6" d="M143.79,116.36c1.83,0,3.37-1.44,3.37-3.32c0-1.88-1.54-3.32-3.37-3.32c-1.83,0-3.37,1.44-3.37,3.32
				C140.42,114.93,141.96,116.36,143.79,116.36z"/>
			<path class="st6" d="M136.8,134.14c-0.2,0.84-0.3,1.75-0.3,2.49c0,2.92,1.59,4.86,4.95,4.86c1.9,0,3.56-0.77,4.94-2.11
				c0.45-0.44,1.2-0.02,1.05,0.6l-0.1,0.39c-0.1,0.4,0.2,0.78,0.61,0.78h4.26c0.29,0,0.54-0.2,0.61-0.47l3.05-12.24
				c0.79-3.22,2.33-4.89,4.66-4.89c1.83,0,2.97,1.14,2.97,3.02c0,0.55-0.05,1.14-0.25,1.78l-1.63,5.84
				c-0.25,0.84-0.35,1.68-0.35,2.48c0,2.77,1.63,4.8,5.05,4.8c2.8,0,6.8-4.43,8.27-8.77c0.11-0.32-0.06-0.66-0.37-0.78l0,0
				c-0.3-0.12-0.65,0.02-0.79,0.31c-1.32,2.84-4.82,5.57-5.52,5.57c-0.74,0-1.14-0.5-1.14-1.49c0-0.45,0.1-0.94,0.25-1.54l1.59-5.69
				c0.4-1.34,0.54-2.52,0.54-3.61c0-4.26-2.58-6.48-5.7-6.48c-2.03,0-4.09,1.28-5.65,2.99c-0.43,0.47-1.21,0.07-1.07-0.56l0.27-1.24
				c0.09-0.39-0.21-0.76-0.61-0.76h-7.21c-0.28,0-0.53,0.19-0.6,0.46l-0.85,3.13c-0.11,0.4,0.19,0.79,0.6,0.79h2.34
				c0.41,0,0.71,0.38,0.61,0.78l-2.23,8.93c-0.01,0.04-0.02,0.08-0.04,0.11c-1.92,4.2-5.41,4.27-5.85,4.17
				c-0.73-0.16-1.19-0.44-1.19-1.38c0-0.54,0.1-1.33,0.35-2.27l3.52-13.96c0.1-0.4-0.2-0.78-0.61-0.78h-8.13
				c-0.28,0-0.53,0.19-0.6,0.46l-0.85,3.13c-0.11,0.4,0.19,0.79,0.6,0.79h2.3c0.41,0,0.71,0.38,0.61,0.78L136.8,134.14z"/>
		</g>
		<g>
			<path class="st6" d="M145.51,23.25c0,1.49,1.21,2.63,2.66,2.63c1.45,0,2.66-1.14,2.66-2.63c0-1.49-1.21-2.62-2.66-2.62
				C146.72,20.63,145.51,21.76,145.51,23.25z"/>
			<path class="st6" d="M149.02,31.94l0.76-3.02c0.08-0.31-0.16-0.62-0.48-0.62h-2.67c-0.38,1-0.14,2.17,0.72,2.92
				C147.91,31.45,148.46,31.7,149.02,31.94z"/>
			<path class="st6" d="M172.24,38.19c-0.24-0.09-0.52,0.01-0.62,0.25c-1.04,2.25-3.82,4.41-4.37,4.41c-0.59,0-0.9-0.39-0.9-1.17
				c0-0.35,0.08-0.74,0.2-1.22l1.25-4.5c0.31-1.06,0.43-2,0.43-2.86c0-3.37-2.04-5.13-4.51-5.13c-1.61,0-3.24,1.01-4.47,2.36
				c-0.34,0.37-0.96,0.06-0.85-0.44l0.21-0.98c0.07-0.31-0.17-0.6-0.48-0.6h-5.71c-0.22,0-0.42,0.15-0.48,0.37l-0.67,2.48
				c-0.09,0.31,0.15,0.63,0.48,0.63h1.85c0.32,0,0.56,0.3,0.48,0.62l-0.46,1.85c1.33,0.76,2.59,1.58,3.78,2.49l0.32-1.3
				c0.63-2.55,1.84-3.87,3.68-3.87c1.45,0,2.35,0.9,2.35,2.39c0,0.43-0.04,0.9-0.2,1.41l-1.29,4.62c-0.11,0.39-0.18,0.77-0.22,1.15
				c1.15,1.37,2.18,2.86,3.05,4.5c0.01,0.01,0.02,0.02,0.03,0.04c0.27,0.04,0.56,0.07,0.87,0.07c2.21,0,5.38-3.51,6.54-6.93
				C172.62,38.56,172.49,38.28,172.24,38.19z"/>
		</g>
	</g>
</g>
</svg>
