<?xml version="1.0" encoding="utf-8"?>
<!-- Generator: Adobe Illustrator 25.2.3, SVG Export Plug-In . SVG Version: 6.00 Build 0)  -->
<svg version="1.1" id="Layer_1" xmlns="http://www.w3.org/2000/svg" xmlns:xlink="http://www.w3.org/1999/xlink" x="0px" y="0px"
	 viewBox="0 0 200 200" style="enable-background:new 0 0 200 200;" xml:space="preserve">
<style type="text/css">
	.st0{fill:#2D3848;}
	.st1{fill:#F3941F;}
	.st2{opacity:0.1;}
	.st3{clip-path:url(#SVGID_2_);}
	.st4{clip-path:url(#SVGID_4_);fill:#2D3848;}
	.st5{clip-path:url(#SVGID_4_);}
	.st6{fill:#FFFFFF;}
	.st7{fill:none;}
</style>
<g>
	<g>
		<g>
			<path class="st6" d="M27,83.74h8.47c0.3,0,0.59,0.12,0.8,0.33L42,89.79c0.88,0.88,2.03,1.31,3.19,1.31
				c1.15,0,2.29-0.43,3.17-1.29l5.84-5.75c0.21-0.21,0.5-0.33,0.79-0.33h8.37c5.19,0,9.41-4.22,9.41-9.41v-9.87
				c1.28,0.46,2.65,0.72,4.09,0.72h11.35c0.87,0,1.69,0.37,2.26,1.02l5.74,6.52c0.99,1.13,2.43,1.78,3.93,1.79h0.02
				c1.5,0,2.93-0.64,3.93-1.76l5.88-6.57c0.57-0.64,1.39-1,2.25-1h11.22c1.29,0,2.54-0.21,3.71-0.59v9.74
				c0,5.19,4.22,9.41,9.41,9.41h8.47c0.3,0,0.59,0.12,0.8,0.33l5.73,5.72c0.88,0.88,2.03,1.31,3.19,1.31c1.15,0,2.29-0.43,3.17-1.29
				l5.84-5.75c0.21-0.21,0.5-0.33,0.79-0.33h8.37c5.19,0,9.41-4.22,9.41-9.41V49.9c0-5.19-4.22-9.41-9.41-9.41h-37.44v-18.3
				c0-6.64-5.4-12.05-12.05-12.05h-21.45c-1.45,0-2.63,1.18-2.63,2.63s1.18,2.63,2.63,2.63h21.45c3.74,0,6.78,3.04,6.78,6.78v30.94
				c0,3.74-3.04,6.78-6.78,6.78h-11.22c-2.35,0-4.6,1.01-6.17,2.76l-5.88,6.57l-5.74-6.52c-1.57-1.78-3.84-2.81-6.22-2.81H76.86
				c-3.74,0-6.78-3.04-6.78-6.78V22.18c0-3.74,3.04-6.78,6.78-6.78h12.85c1.45,0,2.63-1.18,2.63-2.63s-1.18-2.63-2.63-2.63H76.86
				c-6.64,0-12.05,5.4-12.05,12.05v18.3H27c-5.19,0-9.41,4.22-9.41,9.41v24.43C17.59,79.52,21.81,83.74,27,83.74z M172.93,45.75
				c2.29,0,4.14,1.86,4.14,4.14v24.43c0,2.29-1.86,4.14-4.14,4.14h-8.37c-1.69,0-3.28,0.65-4.49,1.84l-5.32,5.23l-5.21-5.2
				c-1.21-1.21-2.81-1.87-4.52-1.87h-8.47c-2.29,0-4.14-1.86-4.14-4.14V61.15c1.91-2.13,3.07-4.94,3.07-8.02v-7.37L172.93,45.75
				L172.93,45.75z M54.99,78.47c-1.69,0-3.28,0.65-4.49,1.84l-5.32,5.23l-5.21-5.2c-1.21-1.21-2.81-1.87-4.52-1.87H27
				c-2.29,0-4.14-1.86-4.14-4.14V49.9l0,0c0-2.29,1.86-4.14,4.14-4.14h37.82v7.37c0,2.87,1.01,5.51,2.69,7.58v13.62
				c0,2.29-1.86,4.14-4.14,4.14H54.99"/>
			<path class="st6" d="M183.5,169.6v-38.35c0-15.78-12.84-28.62-28.62-28.62c-4.54,0-9.05,1.09-13.06,3.15
				c-1.29,0.66-1.8,2.25-1.14,3.54c0.66,1.29,2.25,1.8,3.54,1.14c3.32-1.7,6.9-2.57,10.66-2.57c12.88,0,23.36,10.48,23.36,23.36
				v33.7c-0.07-0.03-0.14-0.07-0.21-0.1h0l-13.26-5.46v-5.15c5.07-5.06,8.96-13.17,8.96-20.63c0-9.61-4.28-17.16-11.45-20.2
				c-0.65-0.28-1.39-0.28-2.04-0.01c-0.45,0.22-1.28,0.72-1.56,1.87c-1.59,7.24-7.3,12.93-14.55,14.48l-6.03,1.29
				c-1.01,0.2-2.07,1.41-2.08,3.1c0.18,7.39,4.01,15.22,8.96,20.14v5.11l-10.47,4.32c-0.84-1.04-1.85-1.96-3-2.71v-29.75
				c0-4.83,1.46-9.46,4.22-13.39c0.83-1.19,0.55-2.83-0.64-3.67c-1.19-0.83-2.83-0.55-3.67,0.64c-3.38,4.83-5.17,10.5-5.17,16.42
				v27.31l-14.41-5.94v-10c6.6-5.34,10.5-14.95,11.23-24.41c3.45-2.48,5.47-7.49,6.58-11.5c0.76-2.75,0.3-5.68-1.28-8.04
				c-1-1.49-2.37-2.66-3.97-3.4c0.16-0.88,0.2-1.78,0.12-2.68c-0.43-4.83-4.25-8.64-9.07-9.06c-1.8-0.16-3.59,0.18-5.18,0.93
				c-1.94-3.73-5.84-6.23-10.28-6.23c-1.97,0-3.88,0.5-5.58,1.43c-1.74-1.38-3.89-2.14-6.18-2.14c-4.44,0-8.21,2.85-9.52,6.91
				c-6.13,1.16-10.67,6.48-10.67,12.93c0,2.94,0.97,5.76,2.76,8.06c-0.05,1.48-0.04,4.2,0.45,6.82c0.92,4.92,4.18,7.49,6.15,8.63
				c0.23,1.72,0.57,3.43,1.01,5.1c0.31,0.99,1.59,2.32,3.21,1.88c1.41-0.37,2.25-1.81,1.88-3.21c-0.47-1.79-0.81-3.63-1.01-5.47
				c-0.12-1.02,0.26-1.47,2.57-2.59c1.56-0.75,3.56-1.7,4.8-3.66c5.25,0.58,11.11-2.34,13.95-6.81c1.79,1.17,4.51,2.22,7.33,1.93
				c1.34,2.87,3.24,4.18,4.7,5.18c1.57,1.08,2.05,1.42,2.06,3.4c-0.55,12.3-7.35,25.01-17.83,25.01c-5.79,0-9.67-3.68-11.91-6.76
				c-0.85-1.18-2.5-1.44-3.68-0.58c-1.18,0.85-1.44,2.5-0.58,3.68c1.34,1.85,2.82,3.42,4.41,4.7v9.97
				c-4.34,1.79-13.19,5.43-17.45,7.19c-2.11,0.87-3.9,2.24-5.26,3.94l-10.59-4.36v-8.09c3.71-3.29,6.88-8.11,8.55-13.39
				c0.75-0.11,1.43-0.54,1.84-1.18c2.74-4.28,7.99-17.24-0.43-25.78c-3.31-3.35-7.97-4.06-11.82-3.32
				c-0.16-0.35-0.34-0.69-0.55-1.01c-3.56-5.55-12.74-6.33-20.92-1.77c-1.27,0.71-1.72,2.31-1.02,3.58
				c0.71,1.27,2.31,1.73,3.58,1.02c6.13-3.42,12.15-2.76,13.92,0.01c0.73,1.15,0.78,2.91,0.13,4.83c-0.97,2.86-3.74,6.55-8.62,8.33
				c-5.62,2.05-9.51,5.26-11.9,7.79c-0.99-3.47-1.56-8.43-0.2-12.94c0.42-1.39-0.37-2.86-1.76-3.28c-1.39-0.42-2.86,0.37-3.28,1.76
				c-2.43,8.06-0.05,17.3,2.32,21c0.43,0.67,1.13,1.1,1.91,1.19c1.69,5.17,4.82,9.89,8.48,13.14v8.12
				c-0.24,0.11-13.15,5.41-13.41,5.53c-4.21,1.8-6.92,5.9-6.92,10.49v8.3c0,3.39,2.76,6.15,6.15,6.15h157.89
				c3.39,0,6.15-2.76,6.15-6.15v-8.3C185.09,173.32,184.52,171.32,183.5,169.6L183.5,169.6z M115.37,104.31
				c-0.19-0.69-0.66-1.27-1.29-1.61c-0.63-0.34-1.37-0.4-2.06-0.18c-0.6,0.19-1.22,0.29-1.84,0.29c-1.98,0-3.83-0.98-4.94-2.63
				c-0.56-0.83-1.55-1.27-2.54-1.13c-0.99,0.14-1.82,0.83-2.14,1.79c-1.35,4.12-5.17,6.88-9.51,6.88c-0.49,0-1.67-0.18-2.31-0.3
				c-1.4-0.27-2.76,0.63-3.06,2.02c-0.23,1.03-1.01,1.5-2.87,2.39c-1.39,0.67-3.22,1.54-4.41,3.22c-0.83-0.84-1.63-2.07-1.95-3.77
				c-0.57-3.07-0.32-6.52-0.32-6.55c0.06-0.73-0.19-1.45-0.69-1.99c-1.36-1.46-2.1-3.37-2.1-5.36c0-4.3,3.36-7.76,7.66-7.89
				c1.33-0.04,2.42-1.06,2.54-2.39c0.23-2.45,2.26-4.29,4.72-4.29c1.49,0,2.86,0.69,3.77,1.88c0.44,0.58,1.1,0.95,1.83,1.03
				c0.73,0.07,1.45-0.16,2-0.64c1.15-1.01,2.63-1.56,4.16-1.56c3.22,0,5.92,2.41,6.28,5.6c0.12,1.05,0.85,1.92,1.86,2.23
				c1.01,0.3,2.11-0.03,2.78-0.84c1.01-1.22,2.5-1.84,4.08-1.7c2.24,0.2,4.09,2.04,4.29,4.28c0.08,0.95-0.11,1.89-0.56,2.72
				c-0.42,0.77-0.43,1.71-0.03,2.49s1.18,1.31,2.06,1.4c1.16,0.1,2.32,0.67,3.24,1.94c0.73,1.09,0.94,2.44,0.59,3.71
				c-0.74,2.66-1.67,4.88-2.67,6.47c-0.88-1.39-2.09-2.22-3.09-2.91C117.32,107.84,116.13,107.02,115.37,104.31L115.37,104.31z
				 M145.23,134.9c8.1-1.73,14.7-7.5,17.58-15.11c3.58,2.79,5.64,7.75,5.64,13.83c0,9.45-8.22,20.38-13.59,20.38
				c-4.97,0-12.39-9.3-13.46-18.28L145.23,134.9z M95.4,184.6c-0.97-9.07-4.38-17.82-9.8-25.15l4.72-1.95
				c2.67,2.37,6.13,3.7,9.75,3.7h0c3.63,0,7.09-1.34,9.76-3.7l4.65,1.91c-5.45,7.33-8.9,16.1-9.88,25.18H95.4z M119.53,161.49
				l7.76,3.2c2.97,1.23,4.9,4.1,4.9,7.31v12.59h-22.28C110.93,176.2,114.28,168.13,119.53,161.49z M100.08,146.89
				c2.33,0,4.5-0.42,6.51-1.19v7.64c-1.75,1.66-4.07,2.59-6.5,2.59c0,0,0,0,0,0c-2.44,0-4.76-0.94-6.5-2.59v-7.64
				C95.63,146.49,97.8,146.89,100.08,146.89L100.08,146.89z M62.71,184.6h-4.59l4.59-5.33V184.6z M62.74,171.16L51.17,184.6H39.19
				l-12.07-16.16l10.15-4.18c2.18,1.83,4.96,2.86,7.85,2.86h0c2.89,0,5.67-1.02,7.85-2.86l10.22,4.21
				C62.96,169.34,62.8,170.24,62.74,171.16L62.74,171.16z M61.22,114.66c4.58,4.64,3.14,11.68,1.33,16.09
				c-1.73-1.71-4.21-3.91-7.21-5.83c-1.89-1.21-3.41-2.81-4.33-4.52c0.97-1.37,1.74-2.85,2.27-4.42c0.36-1.05,0.58-2.1,0.67-3.12
				C56.14,112.41,59.17,112.58,61.22,114.66L61.22,114.66z M31.19,134.45c1.87-2.08,5.21-5.04,10.28-6.89
				c2.13-0.77,4.08-1.88,5.78-3.23c1.32,1.92,3.11,3.64,5.25,5.01c2.72,1.74,4.98,3.77,6.5,5.3c-2.03,8.64-9.11,15.84-13.88,15.84
				C40.35,150.48,33.17,143.17,31.19,134.45L31.19,134.45z M45.12,155.75c1.52,0,3.08-0.36,4.62-1.02v5.36
				c-1.27,1.12-2.91,1.75-4.62,1.75c0,0,0,0,0,0c-1.71,0-3.35-0.63-4.62-1.76v-5.36C42.05,155.39,43.6,155.75,45.12,155.75
				L45.12,155.75z M20.17,183.71v-8.3c0-1.82,0.79-3.5,2.12-4.64l10.32,13.82H21.06C20.57,184.6,20.17,184.2,20.17,183.71z
				 M67.97,172c0-3.22,1.92-6.09,4.9-7.31l7.69-3.17c5.21,6.64,8.54,14.7,9.53,23.08H67.98L67.97,172L67.97,172z M137.45,184.6V172
				c0-1.24-0.18-2.44-0.5-3.59l8.07-3.32c0.1,6.63,0.72,13.6,4.41,19.51H137.45z M150.26,161.16v-3.04c1.54,0.73,3.1,1.14,4.62,1.14
				c1.52,0,3.08-0.41,4.62-1.15c0,0.01,0,2.78,0,3.06c0,7.9,0,16.05-4.62,22.06C150.26,177.23,150.26,169.07,150.26,161.16
				C150.26,161.16,150.26,161.16,150.26,161.16L150.26,161.16z M179.83,183.71c0,0.49-0.4,0.88-0.88,0.88h-18.61
				c3.69-5.91,4.31-12.88,4.41-19.51l11.27,4.65h0c2.31,0.95,3.81,3.19,3.81,5.69L179.83,183.71z"/>
		</g>
		<g>
			<path class="st6" d="M38.96,53.68c1.26,0,2.32-0.99,2.32-2.29c0-1.3-1.06-2.29-2.32-2.29c-1.26,0-2.32,0.99-2.32,2.29
				C36.64,52.69,37.7,53.68,38.96,53.68z"/>
			<path class="st6" d="M34.15,65.93c-0.14,0.58-0.2,1.21-0.2,1.72c0,2.02,1.09,3.35,3.41,3.35c1.31,0,2.45-0.53,3.4-1.45
				c0.31-0.3,0.83-0.01,0.72,0.41l-0.07,0.27c-0.07,0.27,0.14,0.54,0.42,0.54h2.93c0.2,0,0.37-0.14,0.42-0.33l2.1-8.44
				c0.55-2.22,1.6-3.37,3.21-3.37c1.26,0,2.05,0.79,2.05,2.08c0,0.38-0.03,0.79-0.17,1.23l-1.13,4.03
				c-0.17,0.58-0.24,1.16-0.24,1.71c0,1.91,1.13,3.31,3.48,3.31c1.93,0,4.69-3.06,5.7-6.04c0.07-0.22-0.04-0.46-0.25-0.54l0,0
				c-0.21-0.08-0.45,0.01-0.54,0.22c-0.91,1.96-3.33,3.84-3.81,3.84c-0.51,0-0.79-0.34-0.79-1.02c0-0.31,0.07-0.65,0.17-1.06
				l1.09-3.93c0.27-0.92,0.38-1.74,0.38-2.49c0-2.94-1.78-4.47-3.93-4.47c-1.4,0-2.82,0.88-3.9,2.06c-0.3,0.33-0.83,0.05-0.74-0.38
				l0.19-0.85c0.06-0.27-0.15-0.52-0.42-0.52h-4.97c-0.2,0-0.37,0.13-0.42,0.32l-0.59,2.16c-0.07,0.27,0.13,0.54,0.42,0.54h1.61
				c0.28,0,0.49,0.26,0.42,0.54l-1.54,6.16c-0.01,0.03-0.02,0.05-0.03,0.08c-1.33,2.9-3.73,2.95-4.04,2.88
				c-0.5-0.11-0.82-0.3-0.82-0.95c0-0.38,0.07-0.91,0.24-1.56l2.43-9.62c0.07-0.27-0.14-0.54-0.42-0.54h-5.6
				c-0.2,0-0.37,0.13-0.42,0.32l-0.59,2.16c-0.07,0.27,0.13,0.54,0.42,0.54h1.58c0.28,0,0.49,0.26,0.42,0.53L34.15,65.93z"/>
		</g>
		<g>
			<path class="st6" d="M147.13,53.68c1.26,0,2.32-0.99,2.32-2.29c0-1.3-1.06-2.29-2.32-2.29c-1.26,0-2.32,0.99-2.32,2.29
				C144.81,52.69,145.87,53.68,147.13,53.68z"/>
			<path class="st6" d="M142.32,65.93c-0.14,0.58-0.2,1.21-0.2,1.72c0,2.02,1.09,3.35,3.41,3.35c1.31,0,2.45-0.53,3.4-1.45
				c0.31-0.3,0.83-0.01,0.72,0.41l-0.07,0.27c-0.07,0.27,0.14,0.54,0.42,0.54h2.93c0.2,0,0.37-0.14,0.42-0.33l2.1-8.44
				c0.55-2.22,1.6-3.37,3.21-3.37c1.26,0,2.05,0.79,2.05,2.08c0,0.38-0.03,0.79-0.17,1.23l-1.13,4.03
				c-0.17,0.58-0.24,1.16-0.24,1.71c0,1.91,1.13,3.31,3.48,3.31c1.93,0,4.69-3.06,5.7-6.04c0.07-0.22-0.04-0.46-0.25-0.54l0,0
				c-0.21-0.08-0.45,0.01-0.54,0.22c-0.91,1.96-3.33,3.84-3.81,3.84c-0.51,0-0.79-0.34-0.79-1.02c0-0.31,0.07-0.65,0.17-1.06
				l1.09-3.93c0.27-0.92,0.38-1.74,0.38-2.49c0-2.94-1.78-4.47-3.93-4.47c-1.4,0-2.82,0.88-3.9,2.06c-0.3,0.33-0.83,0.05-0.74-0.38
				l0.19-0.85c0.06-0.27-0.15-0.52-0.42-0.52h-4.97c-0.2,0-0.37,0.13-0.42,0.32l-0.59,2.16c-0.07,0.27,0.13,0.54,0.42,0.54h1.61
				c0.28,0,0.49,0.26,0.42,0.54l-1.54,6.16c-0.01,0.03-0.02,0.05-0.03,0.08c-1.33,2.9-3.73,2.95-4.04,2.88
				c-0.5-0.11-0.82-0.3-0.82-0.95c0-0.38,0.07-0.91,0.24-1.56l2.43-9.62c0.07-0.27-0.14-0.54-0.42-0.54h-5.6
				c-0.2,0-0.37,0.13-0.42,0.32l-0.59,2.16c-0.07,0.27,0.13,0.54,0.42,0.54h1.58c0.28,0,0.49,0.26,0.42,0.53L142.32,65.93z"/>
		</g>
		<g>
			<path class="st6" d="M90.57,25.56c1.83,0,3.37-1.44,3.37-3.32c0-1.88-1.54-3.32-3.37-3.32c-1.83,0-3.37,1.44-3.37,3.32
				C87.21,24.12,88.74,25.56,90.57,25.56z"/>
			<path class="st6" d="M83.59,43.33c-0.2,0.84-0.3,1.75-0.3,2.49c0,2.92,1.59,4.86,4.95,4.86c1.9,0,3.56-0.77,4.94-2.11
				c0.45-0.44,1.2-0.02,1.05,0.6l-0.1,0.39c-0.1,0.4,0.2,0.78,0.61,0.78H99c0.29,0,0.54-0.2,0.61-0.47l3.05-12.24
				c0.79-3.22,2.33-4.89,4.66-4.89c1.83,0,2.97,1.14,2.97,3.02c0,0.55-0.05,1.14-0.25,1.78l-1.63,5.84
				c-0.25,0.84-0.35,1.68-0.35,2.48c0,2.77,1.63,4.8,5.05,4.8c2.8,0,6.8-4.43,8.27-8.77c0.11-0.32-0.06-0.66-0.37-0.78l0,0
				c-0.3-0.12-0.65,0.02-0.79,0.31c-1.32,2.84-4.82,5.57-5.52,5.57c-0.74,0-1.14-0.5-1.14-1.49c0-0.45,0.1-0.94,0.25-1.54l1.59-5.69
				c0.4-1.34,0.54-2.52,0.54-3.61c0-4.26-2.58-6.48-5.7-6.48c-2.03,0-4.09,1.28-5.65,2.99c-0.43,0.47-1.21,0.07-1.07-0.56l0.27-1.24
				c0.09-0.39-0.21-0.76-0.61-0.76h-7.21c-0.28,0-0.53,0.19-0.6,0.46l-0.85,3.13c-0.11,0.4,0.19,0.79,0.6,0.79h2.34
				c0.41,0,0.71,0.38,0.61,0.78l-2.23,8.93c-0.01,0.04-0.02,0.08-0.04,0.11c-1.92,4.2-5.41,4.27-5.85,4.17
				c-0.73-0.16-1.19-0.44-1.19-1.38c0-0.54,0.1-1.33,0.35-2.27l3.52-13.96c0.1-0.4-0.2-0.78-0.61-0.78h-8.13
				c-0.28,0-0.53,0.19-0.6,0.46l-0.85,3.13c-0.11,0.4,0.19,0.79,0.6,0.79h2.3c0.41,0,0.71,0.38,0.61,0.78L83.59,43.33z"/>
		</g>
	</g>
</g>
</svg>
