<?xml version="1.0" encoding="utf-8"?>
<!-- Generator: Adobe Illustrator 25.2.3, SVG Export Plug-In . SVG Version: 6.00 Build 0)  -->
<svg version="1.1" id="Layer_1" xmlns="http://www.w3.org/2000/svg" xmlns:xlink="http://www.w3.org/1999/xlink" x="0px" y="0px"
	 viewBox="0 0 200 200" style="enable-background:new 0 0 200 200;" xml:space="preserve">
<style type="text/css">
	.st0{fill:#2D3848;}
	.st1{fill:#F3941F;}
	.st2{opacity:0.1;}
	.st3{clip-path:url(#SVGID_2_);}
	.st4{clip-path:url(#SVGID_4_);fill:#2D3848;}
	.st5{clip-path:url(#SVGID_4_);}
	.st6{fill:#FFFFFF;}
	.st7{fill:none;}
</style>
<g>
	<g>
		<g>
			<g>
				<path class="st6" d="M65.22,109l-9.04,2.01l0.23-0.82l0.11-5.36l-15.29-8.92l-7.17-4.19l-14.44-8.42h-9.48v60.07l28.52,9.5h5.55
					l0.69-2.43l8.74,5.25c0.14,4.75,3.95,8.58,8.7,8.74c0.17,4.73,3.97,8.53,8.7,8.7c0.17,4.73,3.97,8.53,8.7,8.7
					c0.17,4.84,4.14,8.73,9.01,8.73c1.81,0,3.59-0.56,5.08-1.57l2.57,2.27c1.61,1.42,3.68,2.2,5.83,2.2h0.54
					c4.82,0,8.75-3.9,8.81-8.71c4.77-0.06,8.64-3.92,8.7-8.7c4.77-0.06,8.64-3.93,8.7-8.7c4.82-0.11,8.71-4.05,8.71-8.89
					c0-0.29-0.01-0.58-0.04-0.87l52.22-26.11V89.1h-6.51l-9.71,5.11l-6.98,3.67l-31.88,16.78l-5.8,3.05l-0.72,0.38h-1.78L108.67,113
					c-1.4-0.4-2.85-0.56-4.3-0.62l-13.12-4.19c-5.98-1.92-12.45-2.2-18.57-0.85l-1.66,0.37L65.22,109z M15.94,89.1h2.11l20.85,12.16
					l-10.52,42.08l-12.44-4.15V89.1z M39.6,147.08l-5.71-1.9l10.22-40.87l6.61,3.86v0.83l-10.88,38.09H39.6z M59.42,155.43
					c0-0.85,0.35-1.69,0.95-2.3l5.1-5.1c0.61-0.61,1.44-0.95,2.3-0.95c1.79,0,3.25,1.46,3.25,3.25c0,0.85-0.35,1.69-0.95,2.3
					l-5.1,5.1c-0.61,0.61-1.44,0.95-2.3,0.95C60.88,158.67,59.42,157.22,59.42,155.43z M68.11,164.12c0-0.85,0.35-1.69,0.95-2.3
					l5.1-5.1c0.61-0.61,1.44-0.95,2.3-0.95c1.79,0,3.25,1.46,3.25,3.25c0,0.85-0.35,1.69-0.95,2.3l-5.1,5.1
					c-0.61,0.61-1.44,0.95-2.3,0.95C69.57,167.37,68.11,165.91,68.11,164.12z M76.81,172.82c0-0.85,0.35-1.69,0.95-2.3l5.1-5.1
					c0.61-0.61,1.44-0.95,2.3-0.95c1.79,0,3.25,1.46,3.25,3.25c0,0.85-0.35,1.69-0.95,2.3l-5.1,5.1c-0.61,0.61-1.44,0.95-2.3,0.95
					C78.27,176.07,76.81,174.61,76.81,172.82z M88.76,184.76c-1.79,0-3.25-1.46-3.25-3.25c0-0.85,0.35-1.69,0.95-2.3l5.1-5.1
					c0.61-0.61,1.44-0.95,2.3-0.95c1.79,0,3.25,1.46,3.25,3.25c0,0.85-0.35,1.69-0.95,2.3l-5.1,5.1
					C90.45,184.42,89.61,184.76,88.76,184.76z M102.77,187.66h-0.54c-0.74,0-1.45-0.27-2-0.76l-2.17-1.91l2.18-2.18
					c0.78-0.78,1.38-1.7,1.83-2.69l2.64,2.19c0.69,0.57,1.09,1.42,1.09,2.32C105.8,186.31,104.44,187.66,102.77,187.66z
					 M128.77,161.57h-0.5c-0.73,0-1.44-0.26-1.99-0.72l-15.72-13.1l-3.71,4.46l15.27,12.72c0.69,0.57,1.08,1.42,1.08,2.32
					c0,1.67-1.36,3.02-3.02,3.02h-0.63c-0.7,0-1.39-0.25-1.93-0.7l-15.74-13.12l-3.71,4.46l15.27,12.72
					c0.69,0.57,1.09,1.42,1.09,2.32c0,1.67-1.36,3.02-3.02,3.02c-1.11,0-2.2-0.39-3.05-1.1l-6.47-5.39
					c-1.43-2.91-4.35-4.94-7.78-5.07c-0.17-4.73-3.97-8.53-8.7-8.7c-0.17-4.73-3.97-8.53-8.7-8.7c-0.17-4.84-4.13-8.73-9.01-8.73
					c-2.38,0-4.71,0.97-6.4,2.65l-5.1,5.1c-0.3,0.3-0.56,0.65-0.81,0.99l-8.9-5.34l7.81-27.32l19.57-4.35
					c5.13-1.15,10.55-0.9,15.55,0.7l4.27,1.37l-14.48,7.24c-3.31,1.66-5.36,4.99-5.36,8.68v0.57c0,5.35,4.36,9.71,9.71,9.71
					c1.76,0,3.49-0.48,4.99-1.39l10.79-6.47c2.17-1.3,5.08-1.01,6.95,0.67l24.49,22.04c0.66,0.59,1.03,1.44,1.03,2.32
					C131.89,160.18,130.49,161.57,128.77,161.57z M184.06,127.9l-48.84,24.42c-0.16-0.17-0.32-0.33-0.5-0.48l-24.49-22.04
					c-2.15-1.94-4.92-3-7.81-3c-2.11,0-4.19,0.57-6.01,1.66l-10.8,6.48c-0.61,0.37-1.3,0.56-2.01,0.56c-2.16,0-3.91-1.75-3.91-3.91
					V131c0-1.49,0.83-2.83,2.16-3.5l16.17-8.08c2.77-1.39,6.05-1.7,9.03-0.84l18.22,5.2l4.41,0.11l54.36-28.61V127.9z"/>
				<g>
					<path class="st6" d="M152.46,31.64c-4.54,0-9.05,1.09-13.06,3.15c-1.29,0.66-1.8,2.25-1.14,3.54c0.66,1.29,2.25,1.8,3.54,1.14
						c3.32-1.7,6.9-2.57,10.66-2.57c12.88,0,23.36,10.48,23.36,23.36v25.33l5.27-2.77V60.26C181.09,44.48,168.25,31.64,152.46,31.64
						z"/>
					<path class="st6" d="M23.4,43.19c-1.39-0.42-2.86,0.37-3.28,1.76c-2.43,8.06-0.05,17.3,2.32,21c0.43,0.67,1.13,1.1,1.91,1.19
						c1.69,5.17,4.82,9.89,8.48,13.14v3.24l1.24,0.72l4.03,2.35v-2.87c1.54,0.66,3.1,1.02,4.62,1.02c1.52,0,3.08-0.36,4.62-1.02
						v5.36c-0.74,0.66-1.61,1.12-2.54,1.41l5.32,3.1c0.15-0.12,0.31-0.23,0.46-0.35l10.22,4.21c-0.24,0.87-0.4,1.77-0.46,2.69
						l4.89,1.36l0.35-0.08v-0.44h0c0-3.22,1.92-6.09,4.9-7.31l7.69-3.17c2.1,2.67,3.88,5.59,5.34,8.65c2.1,0.18,4.19,0.55,6.23,1.1
						c-1.65-4.2-3.84-8.19-6.53-11.83l4.72-1.95c2.67,2.37,6.13,3.7,9.75,3.7h0c3.63,0,7.09-1.34,9.76-3.7l4.65,1.91
						c-3.65,4.91-6.38,10.49-8.1,16.36l0.4,0.13c1.45,0.06,2.9,0.22,4.3,0.62l0.53,0.15c1.68-5.49,4.35-10.67,7.91-15.17l7.76,3.2
						c2.97,1.22,4.9,4.1,4.9,7.31v8.82l5.02-2.64l0.25-0.13v-6.05c0-1.24-0.18-2.44-0.5-3.59l8.07-3.32
						c0.04,2.86,0.2,5.77,0.64,8.64l4.96-2.61c-0.35-3.24-0.35-6.62-0.35-9.96c0,0,0,0,0-0.01v-3.04c1.54,0.73,3.1,1.14,4.62,1.14
						c1.52,0,3.08-0.41,4.62-1.15c0,0.01,0,2.78,0,3.06c0,1.76,0,3.54-0.05,5.3l9.63-5.07l0.24-0.13l-4.55-1.88v-5.15
						c5.07-5.06,8.96-13.17,8.96-20.63c0-9.61-4.28-17.16-11.45-20.2c-0.65-0.28-1.39-0.28-2.04-0.01
						c-0.45,0.22-1.28,0.72-1.56,1.87c-1.59,7.24-7.3,12.93-14.55,14.48l-6.03,1.29c-1.01,0.2-2.07,1.41-2.08,3.1
						c0.18,7.39,4.01,15.22,8.96,20.14v5.11l-10.47,4.32c-0.84-1.04-1.85-1.96-3-2.71V60.26c0-4.83,1.46-9.46,4.22-13.39
						c0.83-1.19,0.55-2.83-0.64-3.67c-1.19-0.83-2.83-0.55-3.67,0.64c-3.38,4.83-5.17,10.5-5.17,16.42v27.31l-14.41-5.94v-10
						c6.6-5.34,10.5-14.95,11.23-24.41c3.45-2.48,5.47-7.49,6.58-11.5c0.76-2.75,0.3-5.68-1.28-8.04c-1-1.5-2.37-2.66-3.97-3.4
						c0.16-0.88,0.2-1.78,0.12-2.68c-0.43-4.83-4.25-8.64-9.07-9.06c-1.8-0.16-3.59,0.18-5.18,0.93c-1.94-3.73-5.84-6.23-10.28-6.23
						c-1.97,0-3.88,0.5-5.58,1.43c-1.74-1.38-3.89-2.14-6.18-2.14c-4.44,0-8.21,2.85-9.52,6.91c-6.13,1.16-10.67,6.48-10.67,12.93
						c0,2.94,0.97,5.76,2.76,8.06c-0.05,1.48-0.04,4.2,0.45,6.82c0.92,4.92,4.18,7.49,6.15,8.63c0.23,1.72,0.57,3.43,1.01,5.1
						c0.31,0.99,1.59,2.32,3.21,1.88c1.41-0.37,2.25-1.81,1.88-3.21c-0.47-1.79-0.81-3.63-1.01-5.47c-0.12-1.02,0.26-1.47,2.57-2.59
						c1.56-0.75,3.56-1.7,4.8-3.66c5.25,0.58,11.11-2.33,13.95-6.81c1.79,1.17,4.51,2.22,7.33,1.93c1.34,2.87,3.24,4.18,4.7,5.18
						c1.57,1.08,2.05,1.42,2.06,3.4c-0.55,12.3-7.35,25.01-17.83,25.01c-5.79,0-9.67-3.68-11.91-6.76c-0.85-1.18-2.5-1.44-3.68-0.58
						c-1.18,0.85-1.44,2.5-0.58,3.68c1.34,1.85,2.82,3.42,4.41,4.7v9.97c-4.34,1.79-13.19,5.43-17.45,7.19
						c-2.11,0.87-3.9,2.24-5.26,3.94L52.59,88.4v-8.09c3.71-3.29,6.88-8.11,8.55-13.39c0.75-0.11,1.43-0.54,1.84-1.18
						c2.74-4.28,7.99-17.24-0.43-25.78c-3.31-3.35-7.97-4.06-11.82-3.32c-0.16-0.35-0.34-0.69-0.55-1.01
						c-3.56-5.56-12.74-6.33-20.92-1.77c-1.27,0.71-1.73,2.31-1.02,3.58c0.71,1.27,2.31,1.73,3.58,1.02
						c6.13-3.42,12.15-2.76,13.92,0.01c0.73,1.15,0.78,2.91,0.13,4.83c-0.97,2.86-3.74,6.55-8.62,8.33
						c-5.62,2.05-9.51,5.26-11.9,7.79c-0.99-3.47-1.56-8.43-0.2-12.94C25.58,45.08,24.79,43.61,23.4,43.19z M139,64.72l3.82-0.82
						c8.1-1.73,14.7-7.5,17.58-15.11c3.58,2.79,5.64,7.75,5.64,13.83c0,9.45-8.22,20.38-13.59,20.38
						C147.49,83,140.07,73.7,139,64.72z M112.96,33.32c-0.19-0.69-0.66-1.27-1.29-1.61c-0.63-0.34-1.37-0.4-2.06-0.18
						c-0.6,0.19-1.22,0.29-1.84,0.29c-1.98,0-3.83-0.98-4.94-2.63c-0.56-0.83-1.55-1.27-2.54-1.13c-0.99,0.14-1.82,0.83-2.14,1.79
						c-1.35,4.12-5.17,6.88-9.51,6.88c-0.49,0-1.67-0.18-2.31-0.3c-1.4-0.27-2.76,0.63-3.06,2.02c-0.23,1.03-1.01,1.5-2.87,2.39
						c-1.39,0.67-3.22,1.54-4.41,3.22c-0.83-0.84-1.63-2.07-1.95-3.77c-0.57-3.07-0.32-6.52-0.32-6.55
						c0.06-0.73-0.19-1.46-0.69-1.99c-1.36-1.46-2.1-3.37-2.1-5.36c0-4.3,3.36-7.76,7.66-7.89c1.33-0.04,2.42-1.06,2.54-2.39
						c0.23-2.45,2.26-4.29,4.72-4.29c1.49,0,2.86,0.68,3.77,1.88c0.44,0.58,1.1,0.95,1.83,1.03c0.73,0.07,1.45-0.16,2-0.64
						c1.15-1.01,2.63-1.56,4.16-1.56c3.22,0,5.92,2.41,6.28,5.6c0.12,1.05,0.85,1.92,1.86,2.23c1.01,0.3,2.11-0.03,2.78-0.84
						c1.01-1.22,2.5-1.84,4.08-1.7c2.24,0.2,4.09,2.04,4.29,4.28c0.08,0.95-0.11,1.89-0.56,2.72c-0.42,0.77-0.43,1.71-0.03,2.49
						c0.41,0.78,1.18,1.31,2.06,1.4c1.16,0.1,2.32,0.67,3.24,1.94c0.73,1.09,0.94,2.44,0.59,3.71c-0.74,2.66-1.67,4.88-2.67,6.47
						c-0.89-1.39-2.09-2.22-3.09-2.91C114.91,36.84,113.71,36.02,112.96,33.32z M91.16,74.71c2.05,0.78,4.23,1.18,6.5,1.18
						c2.33,0,4.5-0.42,6.51-1.19v7.64c-1.75,1.66-4.07,2.59-6.5,2.59c0,0,0,0,0,0c-2.44,0-4.76-0.94-6.5-2.59V74.71z M50.86,44.98
						c0.36-1.05,0.58-2.1,0.67-3.12c2.19-0.45,5.22-0.27,7.27,1.8c4.58,4.64,3.14,11.68,1.33,16.09c-1.73-1.71-4.21-3.91-7.21-5.83
						c-1.89-1.21-3.41-2.81-4.33-4.52C49.56,48.03,50.33,46.55,50.86,44.98z M28.78,63.46c1.87-2.08,5.21-5.04,10.28-6.89
						c2.13-0.77,4.08-1.88,5.78-3.23c1.32,1.92,3.11,3.64,5.25,5.01c2.72,1.74,4.98,3.77,6.5,5.3c-2.03,8.64-9.11,15.84-13.88,15.84
						C37.93,79.49,30.75,72.17,28.78,63.46L28.78,63.46z"/>
				</g>
			</g>
		</g>
	</g>
</g>
</svg>
