<?xml version="1.0" encoding="utf-8"?>
<!-- Generator: Adobe Illustrator 25.2.3, SVG Export Plug-In . SVG Version: 6.00 Build 0)  -->
<svg version="1.1" id="Layer_1" xmlns="http://www.w3.org/2000/svg" xmlns:xlink="http://www.w3.org/1999/xlink" x="0px" y="0px"
	 viewBox="0 0 200 200" style="enable-background:new 0 0 200 200;" xml:space="preserve">
<style type="text/css">
	.st0{fill:#2D3848;}
	.st1{fill:#F3941F;}
	.st2{opacity:0.1;}
	.st3{clip-path:url(#SVGID_2_);}
	.st4{clip-path:url(#SVGID_4_);fill:#2D3848;}
	.st5{clip-path:url(#SVGID_4_);}
	.st6{fill:#FFFFFF;}
	.st7{fill:none;}
</style>
<g>
	<g>
		<g>
			<g>
				<g>
					<g>
						<path class="st6" d="M159.24,105.2c-1.46,0-2.65,1.19-2.65,2.65c0,1.86-1.51,3.37-3.37,3.37c-1.86,0-3.37-1.51-3.37-3.37
							c0-1.46-1.19-2.65-2.65-2.65s-2.65,1.19-2.65,2.65c0,4.78,3.89,8.67,8.67,8.67s8.67-3.89,8.67-8.67
							C161.89,106.39,160.71,105.2,159.24,105.2z"/>
					</g>
				</g>
				<g>
					<g>
						<path class="st6" d="M184.13,105.63l-7.46-2.39c-0.96-0.31-1.71-1.07-2.01-2.04c-1.57-5-3.95-9.69-7.05-13.95
							c-1.42-1.94-2.99-3.79-4.71-5.56c1.1-4.83,1.7-10.3,1.62-15.02c-0.11-6.76-1.46-10.72-4.13-12.11
							c-1.44-0.75-5.81-3.04-29.45,7.79c-0.56,0.26-1.08,0.57-1.57,0.93c-1.59-0.43-3.22-0.82-4.86-1.18
							c-0.2-0.04-0.4-0.08-0.6-0.12c1.92-4.19,3.04-8.73,3.25-13.43c0.07-1.46-1.07-2.7-2.53-2.77c-1.46-0.07-2.7,1.07-2.77,2.53
							c-0.35,7.72-3.55,14.98-9.01,20.45c-3.27,3.27-7.09,5.64-11.17,7.13c-7.07-0.99-14.27-0.99-21.34,0
							c-4.08-1.49-7.9-3.87-11.17-7.13c-5.83-5.83-9.05-13.59-9.05-21.84c0-8.25,3.21-16.01,9.05-21.84
							c5.83-5.83,13.59-9.05,21.84-9.05c8.25,0,16.01,3.21,21.84,9.05c2.34,2.34,4.28,5.02,5.76,7.95c0.66,1.31,2.25,1.83,3.56,1.18
							c1.31-0.66,1.83-2.25,1.18-3.56c-1.73-3.44-4-6.57-6.74-9.32c-6.83-6.83-15.92-10.6-25.59-10.6S72.24,14.5,65.4,21.33
							c-6.83,6.84-10.6,15.92-10.6,25.59s3.76,18.75,10.6,25.59c1.97,1.97,4.12,3.67,6.39,5.09c0,0,0,0,0,0
							c-1.65,0.43-3.28,0.91-4.9,1.45c-1.39,0.46-2.14,1.97-1.67,3.36c0.46,1.39,1.97,2.14,3.35,1.67c14.46-4.83,30.38-4.83,44.84,0
							c0.28,0.09,0.56,0.14,0.84,0.14c1.11,0,2.14-0.7,2.51-1.81c0.46-1.39-0.29-2.89-1.67-3.36c-1.62-0.54-3.25-1.02-4.9-1.45
							c0,0,0,0,0,0c2.27-1.42,4.41-3.12,6.39-5.09c1.74-1.74,3.28-3.65,4.62-5.67c0.73,0.14,1.46,0.29,2.17,0.45
							c0.95,0.21,1.9,0.43,2.84,0.66c-0.03,0.12-0.06,0.23-0.08,0.35c-1.29,6.14-1.21,11.56,0.25,16.13
							c1.31,4.1,3.68,7.43,7.03,9.88c3.95,2.89,8.73,4.14,13.05,4.14c3.25,0,6.25-0.71,8.46-1.96c2.49-1.41,4.58-4.39,6.23-8.85
							c0.76,0.89,1.49,1.81,2.17,2.74c2.77,3.79,4.88,7.97,6.28,12.42c0.82,2.61,2.86,4.67,5.46,5.5l7.46,2.39
							c1.96,0.63,3.27,2.43,3.27,4.49v12.37c0,2.06-1.32,3.86-3.27,4.49l-12.02,3.85c-1.92,0.62-3.55,1.94-4.58,3.72
							c-4.72,8.16-12.15,14.92-22.07,20.08c-1.15,0.6-1.94,1.66-2.18,2.93L137.8,183c-0.11,0.56-0.6,0.97-1.17,0.97h-12.52
							c-0.57,0-1.06-0.41-1.17-0.97l-2.13-11.27c-0.42-2.22-2.5-3.69-4.74-3.35c-5.39,0.82-10.95,1.23-16.52,1.23
							c-4.14,0-8.23-0.23-12.15-0.69c-2.17-0.25-4.19,1.23-4.59,3.37L80.78,183c-0.11,0.56-0.6,0.97-1.17,0.97H67.09
							c-0.57,0-1.06-0.41-1.17-0.98l-3.71-19.26c-0.24-1.24-1.02-2.3-2.14-2.89c-16.92-9.03-25.86-24.12-25.86-43.63
							c0-9.86,2.16-18.58,6.41-25.91c3.97-6.85,9.77-12.51,17.23-16.82c1.27-0.73,1.7-2.36,0.97-3.62c-0.73-1.27-2.35-1.7-3.62-0.97
							C40.73,78.25,32,91.17,29.6,107.58v0c-0.26-0.02-0.51-0.05-0.76-0.07c0.05-1.77-0.27-3.56-0.97-5.29
							c-1.54-3.82-4.7-6.58-8.05-7.03c-2.64-0.35-5.16,0.77-6.9,3.07c-2.53,3.34-2.12,5.99-1.33,7.62c1.34,2.75,4.77,4.7,10.46,5.92
							c-0.16,0.23-0.33,0.47-0.52,0.71c-3.37,4.22-7.33,5.15-9.91,5.24c-1.51,0.05-2.71,1.26-2.71,2.77v0.01
							c0,1.49,1.17,2.7,2.66,2.77c0.19,0.01,0.39,0.01,0.6,0.01c3.26,0,8.49-1.2,13.51-7.5c0.79-0.99,1.44-2.04,1.94-3.13
							c0.5,0.06,0.98,0.1,1.44,0.15c0,0,0,0,0,0c-0.09,1.44-0.14,2.89-0.14,4.38c0,11.04,2.63,20.88,7.82,29.26
							c4.79,7.72,11.64,14.04,20.37,18.8l3.6,18.72c0.58,3.06,3.26,5.29,6.38,5.29h12.52c3.12,0,5.8-2.22,6.38-5.29l1.83-9.68
							c3.81,0.4,7.75,0.61,11.73,0.61c5.47,0,10.92-0.38,16.24-1.13l1.93,10.21c0.58,3.06,3.26,5.29,6.38,5.29h12.52
							c3.12,0,5.8-2.22,6.38-5.29l3.75-19.85c10.59-5.6,18.58-12.96,23.73-21.87c0.37-0.64,0.94-1.11,1.61-1.33l12.02-3.85
							c4.16-1.33,6.96-5.17,6.96-9.54v-12.37C191.09,110.8,188.29,106.97,184.13,105.63z M158.81,74.12
							c-1.02,8.73-3.76,16.19-6.51,17.75c-3.13,1.77-10.34,2.11-15.76-1.85c-5.43-3.97-7.23-11.11-5.22-20.64c0,0,0,0,0,0
							c0.2-0.96,0.88-1.79,1.82-2.21c13.27-6.08,20.93-8.06,23.77-8.06c0.43,0,0.75,0.05,0.96,0.13
							C158.72,60.14,159.84,65.32,158.81,74.12z M16.36,103.56c-0.27-0.57,0.37-1.56,0.78-2.1c0.65-0.86,1.25-1.04,1.7-1.04
							c0.1,0,0.19,0.01,0.27,0.02c1.22,0.16,2.93,1.5,3.83,3.75c0.21,0.53,0.49,1.41,0.55,2.5
							C19.83,105.93,16.98,104.84,16.36,103.56z"/>
					</g>
				</g>
			</g>
			<g>
				<path class="st6" d="M81.03,33.67c1.77,0,3.26-1.39,3.26-3.21c0-1.82-1.48-3.21-3.26-3.21c-1.77,0-3.26,1.39-3.26,3.21
					C77.78,32.28,79.26,33.67,81.03,33.67z"/>
				<path class="st6" d="M74.28,50.85c-0.19,0.81-0.29,1.69-0.29,2.41c0,2.83,1.53,4.7,4.79,4.7c1.84,0,3.44-0.74,4.77-2.04
					c0.44-0.43,1.16-0.02,1.01,0.58l-0.09,0.38c-0.1,0.38,0.19,0.75,0.59,0.75h4.11c0.28,0,0.52-0.19,0.59-0.46l2.95-11.83
					c0.77-3.11,2.25-4.73,4.5-4.73c1.77,0,2.87,1.1,2.87,2.92c0,0.53-0.05,1.1-0.24,1.72l-1.58,5.65c-0.24,0.81-0.33,1.63-0.33,2.39
					c0,2.68,1.58,4.65,4.88,4.65c2.71,0,6.58-4.28,7.99-8.48c0.1-0.31-0.05-0.64-0.36-0.76l0,0c-0.29-0.11-0.63,0.02-0.76,0.3
					c-1.27,2.75-4.66,5.39-5.34,5.39c-0.72,0-1.1-0.48-1.1-1.44c0-0.43,0.1-0.91,0.24-1.49l1.53-5.51c0.38-1.29,0.53-2.44,0.53-3.49
					c0-4.12-2.49-6.27-5.51-6.27c-1.97,0-3.95,1.23-5.47,2.89c-0.42,0.46-1.17,0.07-1.04-0.54l0.26-1.2
					c0.08-0.38-0.21-0.74-0.59-0.74h-6.97c-0.27,0-0.51,0.18-0.58,0.45l-0.82,3.03c-0.1,0.39,0.19,0.76,0.58,0.76h2.26
					c0.39,0,0.68,0.37,0.59,0.75l-2.16,8.64c-0.01,0.04-0.02,0.08-0.04,0.11c-1.86,4.07-5.23,4.13-5.66,4.04
					c-0.7-0.16-1.15-0.42-1.15-1.34c0-0.53,0.1-1.28,0.34-2.19L83,37.39c0.1-0.38-0.19-0.75-0.59-0.75h-7.86
					c-0.27,0-0.51,0.18-0.58,0.45l-0.82,3.03c-0.1,0.39,0.19,0.76,0.58,0.76h2.22c0.39,0,0.68,0.37,0.59,0.75L74.28,50.85z"/>
			</g>
		</g>
	</g>
</g>
</svg>
